<svg xmlns="http://www.w3.org/2000/svg" width="65.065" height="52.95" viewBox="0 0 65.065 52.95"><path d="M16.486,43.285H7.994a.87.87,0,0,1-.35-.048l-.342-.1L6.96,43c-.111,0-.223-.1-.326-.143A4.1,4.1,0,0,1,6,42.481L5.71,42.29l-.279-.263-.255-.287c-.08-.1-.151-.2-.223-.31a3.259,3.259,0,0,1-.183-.318,2.069,2.069,0,0,1-.151-.334,2.746,2.746,0,0,1-.111-.334,2.149,2.149,0,0,1-.064-.326,2.228,2.228,0,0,1,0-.318V19.122a1.433,1.433,0,0,1,0-.175,1.321,1.321,0,0,1,.048-.167,1.019,1.019,0,0,1,.088-.159,1.663,1.663,0,0,1,.111-.135l.135-.111.159-.088.167-.048a.716.716,0,0,1,.183,0H61.048a.621.621,0,0,1,.175,0,.581.581,0,0,1,.2.088.8.8,0,0,1,.159.088l.135.111a.637.637,0,0,1,.119.135.987.987,0,0,1,.08.159,1.369,1.369,0,0,1,.056.167,1.431,1.431,0,0,1,0,.175V39.815a2.228,2.228,0,0,1,0,.318,1.481,1.481,0,0,1-.064.326,3.287,3.287,0,0,1-.111.334,2.527,2.527,0,0,1-.151.334,2.594,2.594,0,0,1-.223.279,3.63,3.63,0,0,1-.215.31L60.952,42l-.279.263-.294.223-.3.207-.318.167-.326.143-.342.111-.342.08a.889.889,0,0,0-.35.048H50.033a1.838,1.838,0,0,0-.724.143,1.982,1.982,0,0,0-.613.414,1.894,1.894,0,0,0-.414.613,1.99,1.99,0,0,0-.143.724,1.915,1.915,0,0,0,1.17,1.751,1.99,1.99,0,0,0,.724.143H58.5a5.57,5.57,0,0,0,.637,0,6.017,6.017,0,0,0,.661-.111,4.941,4.941,0,0,0,.645-.191,6.511,6.511,0,0,0,.653-.255,6.86,6.86,0,0,0,.637-.326c.207-.119.414-.255.621-.4s.4-.294.589-.454.374-.326.557-.5a6.388,6.388,0,0,0,.5-.549c.151-.183.31-.39.454-.6a6.319,6.319,0,0,0,.4-.621,6.861,6.861,0,0,0,.326-.637c.1-.215.183-.43.255-.645s.135-.438.191-.653a6.017,6.017,0,0,0,.111-.661,5.569,5.569,0,0,0,0-.637V6.674a.672.672,0,0,0-.048-.31c-.048-.1,0-.207-.064-.318a1.275,1.275,0,0,1-.088-.318c-.032-.1-.064-.215-.1-.326s-.08-.207-.119-.318L65.171,4.8c-.048-.1-.1-.207-.159-.318s-.119-.215-.183-.326-.127-.207-.191-.318l-.215-.3L64.2,3.2l-.239-.287c-.08-.1-.167-.183-.255-.279s-.175-.183-.263-.263l-.3-.279-.318-.271L62.5,1.612l-.334-.231-.342-.215L61.478.975,61.119.761c-.111-.056-.239-.1-.358-.151s-.247-.1-.366-.143L60.021.347l-.374-.1-.39-.088L58.859.1H7.548l-.39.064-.39.088-.382.1L6,.474,5.646.609,5.288.761,4.914.936l-.342.2-.342.207a3.86,3.86,0,0,0-.31.271l-.326.247-.318.271c-.111.088-.207.183-.31.279s-.175.175-.263.263l-.247.279a2.845,2.845,0,0,0-.239.287c-.08.1-.151.2-.231.3l-.207.3-.2.318L1.4,4.485,1.245,4.8,1.1,5.122.982,5.44a2.138,2.138,0,0,0-.1.287,1.488,1.488,0,0,0-.088.318c-.024.111-.048.215-.064.342A2.093,2.093,0,0,0,.68,6.7q0,.167,0,.31V39.815a5.571,5.571,0,0,0,.04.637,6.017,6.017,0,0,0,.111.661c.048.215.111.43.183.653a4.978,4.978,0,0,0,.263.645,6.025,6.025,0,0,0,.326.637c.119.207.247.414.39.621s.3.406.454.589.326.374.509.557.366.342.549.5a6.913,6.913,0,0,0,.6.454c.207.143.406.271.621.4a6,6,0,0,0,.637.326A6.367,6.367,0,0,0,6,46.747a5.053,5.053,0,0,0,.653.191,6.215,6.215,0,0,0,.653.111,5.842,5.842,0,0,0,.645,0h8.532a1.99,1.99,0,0,0,.724-.143,1.942,1.942,0,0,0,1.027-1.027,1.9,1.9,0,0,0,0-1.449A1.942,1.942,0,0,0,17.211,43.4a1.838,1.838,0,0,0-.724-.143M4.445,7.319a.949.949,0,0,1,.056-.4l.1-.39c.04-.119.088-.247.135-.366l.183-.35c.064-.111.135-.223.207-.326a3.343,3.343,0,0,1,.239-.3A3.1,3.1,0,0,1,5.63,4.9a2.929,2.929,0,0,1,.3-.247,3.184,3.184,0,0,1,.318-.223c.111-.064.223-.127.342-.183l.366-.159Q7.128,4.035,7.3,4a3.183,3.183,0,0,1,.4-.088,3.55,3.55,0,0,1,.406-.056,3.8,3.8,0,0,1,.422,0H57.848a3.669,3.669,0,0,1,.422,0,3.454,3.454,0,0,1,.414.056,3.184,3.184,0,0,1,.4.088,3.04,3.04,0,0,1,.382.119l.366.119.35.191.318.223a3.016,3.016,0,0,1,.294.247,2.309,2.309,0,0,1,.271.287,2.388,2.388,0,0,1,.247.3,3.584,3.584,0,0,1,.2.326c.064.111.119.231.175.35a2.58,2.58,0,0,1,.127.374,2.682,2.682,0,0,1,.1.382,2.992,2.992,0,0,1,.056.4,3.472,3.472,0,0,1,0,.406V9.014a1.194,1.194,0,0,1,0,.175,1.13,1.13,0,0,1-.056.175.907.907,0,0,1-.08.151.947.947,0,0,1-.119.143l-.135.111-.151.08-.175.056H5.177L5.01,9.85l-.151-.08a.987.987,0,0,1-.143-.111A.684.684,0,0,1,4.6,9.515l-.088-.151a1.122,1.122,0,0,1-.048-.175,1.194,1.194,0,0,1,0-.175V7.725A1.165,1.165,0,0,1,4.445,7.319Z" transform="translate(-0.68 -0.1)" fill="#c99a57" fill-rule="evenodd"></path><path d="M38.325,26.7h0c-3.454.072-6.542.565-8.5,4.107-1.687,3.048-1.186,6.367-1.186,10.347-1.735.143-2.929,2.2-2.929,4.178v8.755c0,2.451,1.592,4.393,3.979,4.393H46.96c2.388,0,3.979-1.942,3.979-4.393V45.332c0-1.974-1.194-4.035-2.921-4.178,0-3.979.5-7.266-1.186-10.347-1.958-3.542-5.054-4.035-8.5-4.107m0,14.207H33.016V34.221a3.9,3.9,0,0,1,1.87-2.722,6.717,6.717,0,0,1,3.422-.677h0a6.662,6.662,0,0,1,3.414.677A3.906,3.906,0,0,1,43.6,34.221v6.685Zm-1.974,7.521a1.918,1.918,0,0,1,1.95-2.069h0a1.918,1.918,0,0,1,1.958,2.069c0,1.655-1.027.7-1.066,2.706,0,1.194.4,2.937-.8,2.937h-.151c-1.218,0-.8-1.743-.8-2.937C37.386,49.136,36.359,50.091,36.359,48.428Z" transform="translate(-5.789 -5.529)" fill="#c99a57" fill-rule="evenodd"></path></svg>