<svg xmlns="http://www.w3.org/2000/svg" width="62.533" height="78.84" viewBox="0 0 62.533 78.84"><path d="M31.668,16.01a20.391,20.391,0,0,1,3.82-1.17,20.876,20.876,0,0,1,3.979-.39,20.184,20.184,0,0,1,14.326,5.929,20.228,20.228,0,1,1-33.809,8.938,20.51,20.51,0,0,1,2.109-4.966,1.592,1.592,0,0,1,.43-.47A1.536,1.536,0,0,1,23.1,23.6a1.592,1.592,0,0,1,.637,0,1.528,1.528,0,0,1,.6.207h0a1.592,1.592,0,0,1,.732.995,1.663,1.663,0,0,1,0,.629,1.735,1.735,0,0,1-.2.581v.04A16.475,16.475,0,0,0,23.1,30.2a17.152,17.152,0,0,0-.422,2.2,17.923,17.923,0,0,0-.151,2.276A16.968,16.968,0,1,0,51.485,22.7,17.183,17.183,0,0,0,45.978,19a16.9,16.9,0,0,0-6.486-1.281,17.422,17.422,0,0,0-3.362.327,16.913,16.913,0,0,0-3.18.978A17.342,17.342,0,0,0,30,20.618a17.939,17.939,0,0,0-2.587,2.165l-.056.056a1.544,1.544,0,0,1-.525.358,1.671,1.671,0,0,1-.621.135,1.7,1.7,0,0,1-.629-.119,1.592,1.592,0,0,1-.533-.35,1.544,1.544,0,0,1-.358-.525,1.52,1.52,0,0,1-.127-.621,1.544,1.544,0,0,1,.064-.621,1.767,1.767,0,0,1,.35-.533l.056-.056a20.3,20.3,0,0,1,3.1-2.587,20,20,0,0,1,3.51-1.91" transform="translate(-8.253 -3.403)" fill="#c99a57" fill-rule="evenodd"></path><path d="M32.989,39.141a1.87,1.87,0,0,1-.382-.589,1.727,1.727,0,0,1-.127-.692,1.838,1.838,0,0,1,.135-.684,1.791,1.791,0,0,1,.987-.947,1.687,1.687,0,0,1,.684-.127,1.743,1.743,0,0,1,1.265.533l4.775,4.911,8.325-11.469a1.831,1.831,0,0,1,1.178-.724,1.886,1.886,0,0,1,.7,0,1.711,1.711,0,0,1,.637.294,1.815,1.815,0,0,1,.478.509,1.783,1.783,0,0,1,.239.661,1.735,1.735,0,0,1,0,.7,1.783,1.783,0,0,1-.294.637L41.7,45.818l-.056-.04a1.822,1.822,0,0,1-.438.239,1.958,1.958,0,0,1-.645.111,2.061,2.061,0,0,1-.684-.143,1.99,1.99,0,0,1-.581-.4Z" transform="translate(-10.951 -6.438)" fill="#c99a57" fill-rule="evenodd"></path><path d="M63.187,35.04h0c.2-.3.4-.6.573-.875s.342-.565.485-.844a4.966,4.966,0,0,0,.318-.8,2.308,2.308,0,0,0,0-1.417,5.332,5.332,0,0,0-.318-.756,15.917,15.917,0,0,0-1.059-1.679h0A11.938,11.938,0,0,1,61.4,25.25a12.463,12.463,0,0,1-.183-3.979h0c0-.35.048-.7.064-1.027s0-.645,0-.947a4.624,4.624,0,0,0-.1-.8,2.189,2.189,0,0,0-.231-.629,2.475,2.475,0,0,0-.438-.533,6.056,6.056,0,0,0-.637-.485c-.255-.167-.533-.318-.8-.478l-.931-.462c-.3-.151-.6-.294-.868-.438s-.581-.3-.86-.47a9.647,9.647,0,0,1-.844-.557,7.505,7.505,0,0,1-.8-.653,7.672,7.672,0,0,1-.661-.8c-.2-.271-.382-.549-.557-.844s-.318-.565-.47-.86-.287-.565-.43-.868-.31-.621-.47-.923a9.042,9.042,0,0,0-.478-.8,4.059,4.059,0,0,0-.485-.637,2.229,2.229,0,0,0-.525-.438,3.271,3.271,0,0,0-1.488-.358,18.011,18.011,0,0,0-1.95.056h0l-.971.056H45.3a8.643,8.643,0,0,1-1.019-.064,7.386,7.386,0,0,1-.995-.167,6.494,6.494,0,0,1-.931-.334,7.6,7.6,0,0,1-.883-.438,17.017,17.017,0,0,1-1.592-1.027h0A17.891,17.891,0,0,0,38.173,4.3a4.592,4.592,0,0,0-.8-.31,2.491,2.491,0,0,0-.708-.119,3.39,3.39,0,0,0-1.5.454,17.51,17.51,0,0,0-1.679,1.035h0c-.525.35-1.051.7-1.592,1.011a9.112,9.112,0,0,1-.883.438,6.494,6.494,0,0,1-.931.334,12.137,12.137,0,0,1-3.979.175h0a16.809,16.809,0,0,0-2.014-.04,3.979,3.979,0,0,0-.8.1,2.2,2.2,0,0,0-.629.239,2.085,2.085,0,0,0-.533.438,4.576,4.576,0,0,0-.478.637c-.175.255-.326.541-.485.8l-.454.979c-.143.3-.294.6-.43.875s-.31.581-.478.852a8.516,8.516,0,0,1-.549.844,6.757,6.757,0,0,1-1.441,1.409,8.468,8.468,0,0,1-.836.557c-.279.167-.565.318-.86.47l-.868.438-.931.462a6.568,6.568,0,0,0-.8.478,5.324,5.324,0,0,0-.637.485,2.26,2.26,0,0,0-.438.533,3.184,3.184,0,0,0-.334,1.449,17.907,17.907,0,0,0,.056,1.926h0a5.772,5.772,0,0,0,.056.971,5.932,5.932,0,0,1,0,.995,5.477,5.477,0,0,1-.064,1.019,7.3,7.3,0,0,1-.191,1.011,8.086,8.086,0,0,1-.326.931c-.135.3-.287.6-.446.883-.3.549-.669,1.082-1.019,1.592h0A6.417,6.417,0,0,0,8.7,31.824a3.311,3.311,0,0,0,.446,1.5A19.284,19.284,0,0,0,10.181,35h0c.358.525.716,1.066,1.027,1.592.159.287.31.581.446.883a8.205,8.205,0,0,1,.326.939,7.163,7.163,0,0,1,.191,1c0,.334.056.677.064,1.019s0,.669,0,.995a5.633,5.633,0,0,1-.056.971h0a17.964,17.964,0,0,0-.056,1.926,3.112,3.112,0,0,0,.334,1.449,2.475,2.475,0,0,0,.438.533,4.059,4.059,0,0,0,.637.485c.255.167.533.318.8.478l.931.462c.581.287,1.178.581,1.727.907.287.175.565.358.836.557a6.765,6.765,0,0,1,.8.661,7.585,7.585,0,0,1,.661.8,9.552,9.552,0,0,1,.549.844c.167.279.326.565.478.852s.287.573.43.875.31.629.47.931a7.024,7.024,0,0,0,.47.8,6.057,6.057,0,0,0,.485.637,2.475,2.475,0,0,0,.533.438,3.271,3.271,0,0,0,1.449.334,18.009,18.009,0,0,0,1.926-.064h.04c.581,0,1.178-.072,1.743-.072h1.106l.557.08a4.68,4.68,0,0,1,.557.127,5.619,5.619,0,0,1,.931.326,9.112,9.112,0,0,1,.883.438,18.8,18.8,0,0,1,1.592,1.027l.875.581c.279.175.557.342.844.485a4.656,4.656,0,0,0,.756.318,2.388,2.388,0,0,0,.7.111,2.475,2.475,0,0,0,.708-.111,4.656,4.656,0,0,0,.8-.318,19.022,19.022,0,0,0,1.719-1.059c.263-.183.533-.366.8-.533s.549-.342.8-.5a7.6,7.6,0,0,1,.883-.438,5.619,5.619,0,0,1,.939-.215,6.367,6.367,0,0,1,1-.191c.334,0,.677-.056,1.019-.064a17.6,17.6,0,0,1,1.958.072h0a18.137,18.137,0,0,0,1.926.064,3.279,3.279,0,0,0,1.456-.334,2.642,2.642,0,0,0,.525-.438,4.465,4.465,0,0,0,.485-.637q.255-.39.478-.8c.159-.294.31-.613.47-.923.287-.589.573-1.178.915-1.743a7.815,7.815,0,0,1,1.2-1.592,6.765,6.765,0,0,1,.8-.661c.263-.2.549-.382.8-.557.549-.326,1.146-.621,1.727-.907a18.011,18.011,0,0,0,1.719-.915,3.184,3.184,0,0,0,1.114-1.043,2.1,2.1,0,0,0,.231-.629,4.624,4.624,0,0,0,.1-.8v-.947a5.691,5.691,0,0,0-.064-1.027h0c0-.645-.08-1.305-.072-1.974a8.484,8.484,0,0,1,.255-2,7.625,7.625,0,0,1,.8-1.8,15.665,15.665,0,0,1,1.035-1.592m1.9-9.551c.119.207.255.422.4.637s.294.446.438.677h0a17.51,17.51,0,0,1,1.377,2.292,6.272,6.272,0,0,1,.684,2.674c0,1.958-1.082,3.581-2.045,5.014h0A9.161,9.161,0,0,0,64.58,39.3a5.277,5.277,0,0,0-.143,1.329,12.321,12.321,0,0,0,.072,1.592h0c0,.422.056.852.072,1.3s0,.883,0,1.313a7.576,7.576,0,0,1-.231,1.337,5.317,5.317,0,0,1-.533,1.289,5.651,5.651,0,0,1-.852,1.114,7.306,7.306,0,0,1-1.114.891,12.68,12.68,0,0,1-1.138.684c-.39.207-.8.406-1.186.6l-.724.366c-.239.119-.462.239-.684.366s-.4.247-.573.366a3.86,3.86,0,0,0-.47.4,3.979,3.979,0,0,0-.366.43c-.119.159-.231.334-.342.517l-.3.541-.255.509,2.252,4.147H54.313l-.438-.8-.111.127q-.143.167-.287.31a6.424,6.424,0,0,1-.541.493,4.951,4.951,0,0,1-.621.414,5.985,5.985,0,0,1-2.587.8,18.527,18.527,0,0,1-2.658,0h0l-.8-.056h-.8a6.52,6.52,0,0,0-.692,0,3.733,3.733,0,0,0-.621.111,3.183,3.183,0,0,0-.541.2,5.826,5.826,0,0,0-.581.3c-.175.1-.342.2-.517.31l-.39.255,1.154,2.037H39.5l-.191-.382-.414.175c-.191.08-.382.143-.581.207a6.424,6.424,0,0,1-.8.175,4.775,4.775,0,0,1-1.647,0,6.12,6.12,0,0,1-.8-.175c-.2-.064-.39-.127-.581-.207l-.422-.175-.525.971H29.76l1.456-2.682-.39-.255c-.175-.111-.342-.215-.517-.31s-.39-.215-.581-.3a3.183,3.183,0,0,0-.541-.2,3.892,3.892,0,0,0-.621-.111,6.52,6.52,0,0,0-.692,0h-.8l-.8.056h0a18.544,18.544,0,0,1-2.658,0,5.985,5.985,0,0,1-2.587-.8,4.951,4.951,0,0,1-.621-.414,5.309,5.309,0,0,1-.541-.493,2.65,2.65,0,0,1-.287-.31l-.111-.127-.438.8H16.477V56.163l1.035-1.91c-.088-.175-.175-.35-.263-.509s-.2-.374-.294-.541a5.281,5.281,0,0,0-.342-.517,3.979,3.979,0,0,0-.366-.43,3.86,3.86,0,0,0-.47-.4c-.175-.119-.366-.247-.573-.366s-.454-.247-.684-.366l-.677-.366c-.39-.191-.8-.39-1.178-.6a11.652,11.652,0,0,1-1.17-.7,7.306,7.306,0,0,1-1.059-.868,5.691,5.691,0,0,1-.86-1.114,5.293,5.293,0,0,1-.509-1.273,6.916,6.916,0,0,1-.231-1.337c0-.43,0-.875,0-1.313s.04-.883.072-1.313h0a9.789,9.789,0,0,0-.072-2.9,5.078,5.078,0,0,0-.565-1.186c-.231-.414-.525-.844-.8-1.281h0C6.52,35.446,5.43,33.822,5.43,31.864a6.28,6.28,0,0,1,.677-2.714,18.123,18.123,0,0,1,1.369-2.316h0c.159-.239.31-.462.446-.677s.279-.43.4-.637a5.92,5.92,0,0,0,.3-.589,3.335,3.335,0,0,0,.207-.549,3.884,3.884,0,0,0,.1-.621,6.63,6.63,0,0,0,.04-.7A12.5,12.5,0,0,0,8.9,21.47h0a18.512,18.512,0,0,1-.048-2.658,6.144,6.144,0,0,1,.8-2.579,5.738,5.738,0,0,1,.86-1.122,8.524,8.524,0,0,1,1.059-.868c.358-.247.748-.47,1.138-.684s.8-.4,1.178-.6h0a9.829,9.829,0,0,0,2.451-1.488A9.917,9.917,0,0,0,17.822,9.03h0a17.661,17.661,0,0,1,1.242-2.388,6.033,6.033,0,0,1,1.942-1.886,6.144,6.144,0,0,1,2.579-.8,18.306,18.306,0,0,1,2.642,0h0l.883.135h.8a6.518,6.518,0,0,0,.692,0,3.892,3.892,0,0,0,.621-.111A9.3,9.3,0,0,0,31.67,2.639h0a19.388,19.388,0,0,1,2.252-1.353A7.752,7.752,0,0,1,35.244.761,5.643,5.643,0,0,1,36.668.57a6.28,6.28,0,0,1,2.722.669A19.1,19.1,0,0,1,41.7,2.623l.669.446c.223.143.438.279.637.39a6.041,6.041,0,0,0,.589.31,3.359,3.359,0,0,0,.557.2,3.733,3.733,0,0,0,.621.111,6.518,6.518,0,0,0,.692,0h.8l.8-.048h0a18.433,18.433,0,0,1,2.65,0,6.176,6.176,0,0,1,2.579.8,5.46,5.46,0,0,1,1.114.86,7.035,7.035,0,0,1,.875,1.059,11.59,11.59,0,0,1,.676,1.138c.207.382.406.8.6,1.178s.478.963.724,1.393a5.412,5.412,0,0,0,.8,1.066,5.428,5.428,0,0,0,1.059.8c.43.247.907.478,1.393.716h0c.4.191.8.382,1.178.589a10.775,10.775,0,0,1,1.138.684,8.523,8.523,0,0,1,1.059.868,5.706,5.706,0,0,1,.852,1.122,5.953,5.953,0,0,1,.8,2.579,18.637,18.637,0,0,1,0,2.666h0c0,.287-.04.573-.048.8s0,.533,0,.8a6.673,6.673,0,0,0,0,.7,5.047,5.047,0,0,0,.111.621,3.335,3.335,0,0,0,.207.549,2.633,2.633,0,0,0,.247.517Z" transform="translate(-5.43 -0.57)" fill="#c99a57" fill-rule="evenodd"></path><path d="M50.924,93.15Zm-7.879-18.6L51,89.25l3-4.393a2.515,2.515,0,0,1,.406-.462,2.841,2.841,0,0,1,.509-.366,2.578,2.578,0,0,1,.581-.223,2.2,2.2,0,0,1,.613-.088l5.317-.135L58.931,79a1.759,1.759,0,0,1-.191-.621,1.592,1.592,0,0,1,.064-.637,1.536,1.536,0,0,1,.294-.565,1.639,1.639,0,0,1,.485-.414h0a1.488,1.488,0,0,1,.613-.191,1.592,1.592,0,0,1,.645.056,1.743,1.743,0,0,1,.565.294,1.8,1.8,0,0,1,.414.493l3.024,5.571a2.7,2.7,0,0,1,.239.621,2.739,2.739,0,0,1,.08.669,3.08,3.08,0,0,1-.1.661,2.388,2.388,0,0,1-.263.621,2.626,2.626,0,0,1-.406.533,2.578,2.578,0,0,1-.525.406,2.459,2.459,0,0,1-.613.263,2.547,2.547,0,0,1-.661.1l-6.073.143-3.422,5.022a3.016,3.016,0,0,1-.422.478,2.7,2.7,0,0,1-.525.366,2.5,2.5,0,0,1-.589.223,2.778,2.778,0,0,1-.629.08h-.1a2.26,2.26,0,0,1-.661-.119,2.324,2.324,0,0,1-.6-.279,2.5,2.5,0,0,1-.907-.971L40.244,76.261l.1-.048a18.123,18.123,0,0,0,2.284-1.377Zm-8.054,1.711L26.546,91.789a2.984,2.984,0,0,1-.39.549,2.666,2.666,0,0,1-.517.422,2.323,2.323,0,0,1-.6.279,2.26,2.26,0,0,1-.661.119h-.135a2.777,2.777,0,0,1-.629-.08,2.7,2.7,0,0,1-.6-.223,2.9,2.9,0,0,1-.517-.366,2.666,2.666,0,0,1-.422-.478L18.651,86.99l-6.073-.143a2.547,2.547,0,0,1-.661-.1,2.34,2.34,0,0,1-.613-.263,2.626,2.626,0,0,1-.533-.406,2.9,2.9,0,0,1-.4-.533A2.618,2.618,0,0,1,10,84.268a2.738,2.738,0,0,1,.08-.669,2.563,2.563,0,0,1,.239-.621L18.468,68c.072.143.151.287.223.438h0a17.66,17.66,0,0,0,1.3,2.34c.127.183.263.366.406.541L13.757,83.583l5.317.135a2.236,2.236,0,0,1,.613.088,2.578,2.578,0,0,1,.581.223,2.969,2.969,0,0,1,.915.8l2.993,4.393,7.959-14.7.422.279h0a18.305,18.305,0,0,0,2.252,1.353ZM56.734,68l2.618,4.775a1.672,1.672,0,0,1,.191.613,1.641,1.641,0,0,1-.828,1.6h0a1.488,1.488,0,0,1-.613.191,1.592,1.592,0,0,1-.669-.016,1.655,1.655,0,0,1-.573-.3,1.592,1.592,0,0,1-.406-.493l-1.647-3.008q.223-.271.43-.573a12.6,12.6,0,0,0,.676-1.138c.207-.39.406-.8.6-1.178Z" transform="translate(-6.363 -14.333)" fill="#c99a57" fill-rule="evenodd"></path></svg>